<svg width="32" height="32" viewBox="0 0 32 32" fill="none" xmlns="http://www.w3.org/2000/svg">
<path d="M20.52 19.4135C18.28 18.2668 15.3733 17.3335 12 17.3335C8.62667 17.3335 5.72 18.2668 3.48 19.4135C2.14667 20.0935 1.33334 21.4668 1.33334 22.9602V26.6668H22.6667V22.9602C22.6667 21.4668 21.8533 20.0935 20.52 19.4135ZM12 16.0002C14.9467 16.0002 17.3333 13.6135 17.3333 10.6668C17.3333 7.72016 14.9467 5.3335 12 5.3335C9.05334 5.3335 6.66667 7.72016 6.66667 10.6668C6.66667 13.6135 9.05334 16.0002 12 16.0002ZM26.6667 12.0002V9.3335C26.6667 8.60016 26.0667 8.00016 25.3333 8.00016C24.6 8.00016 24 8.60016 24 9.3335V12.0002H21.3333C20.6 12.0002 20 12.6002 20 13.3335C20 14.0668 20.6 14.6668 21.3333 14.6668H24V17.3335C24 18.0668 24.6 18.6668 25.3333 18.6668C26.0667 18.6668 26.6667 18.0668 26.6667 17.3335V14.6668H29.3333C30.0667 14.6668 30.6667 14.0668 30.6667 13.3335C30.6667 12.6002 30.0667 12.0002 29.3333 12.0002H26.6667Z" fill="#384250"/>
</svg>
