<svg width="32" height="32" viewBox="0 0 32 32" xmlns="http://www.w3.org/2000/svg">
<path d="M26.6667 8.00008H23.76C23.9067 7.58675 24 7.13341 24 6.66675C24 4.45341 22.2134 2.66675 20 2.66675C18.6 2.66675 17.3867 3.38675 16.6667 4.46675L16 5.36008L15.3334 4.45341C14.6134 3.38675 13.4 2.66675 12 2.66675C9.78669 2.66675 8.00002 4.45341 8.00002 6.66675C8.00002 7.13341 8.09335 7.58675 8.24002 8.00008H5.33335C3.85335 8.00008 2.68002 9.18675 2.68002 10.6667L2.66669 25.3334C2.66669 26.8134 3.85335 28.0001 5.33335 28.0001H26.6667C28.1467 28.0001 29.3334 26.8134 29.3334 25.3334V10.6667C29.3334 9.18675 28.1467 8.00008 26.6667 8.00008ZM20 5.33341C20.7334 5.33341 21.3334 5.93341 21.3334 6.66675C21.3334 7.40008 20.7334 8.00008 20 8.00008C19.2667 8.00008 18.6667 7.40008 18.6667 6.66675C18.6667 5.93341 19.2667 5.33341 20 5.33341ZM12 5.33341C12.7334 5.33341 13.3334 5.93341 13.3334 6.66675C13.3334 7.40008 12.7334 8.00008 12 8.00008C11.2667 8.00008 10.6667 7.40008 10.6667 6.66675C10.6667 5.93341 11.2667 5.33341 12 5.33341ZM26.6667 25.3334H5.33335V22.6667H26.6667V25.3334ZM26.6667 18.6667H5.33335V12.0001C5.33335 11.2667 5.93335 10.6667 6.66669 10.6667H12.1067L10.1334 13.3601C9.69335 13.9601 9.82669 14.8001 10.4267 15.2267C11.0134 15.6534 11.8534 15.5201 12.28 14.9334L16 9.86675L19.72 14.9334C20.1467 15.5201 20.9867 15.6534 21.5734 15.2267C22.1734 14.8001 22.3067 13.9601 21.8667 13.3601L19.8934 10.6667H25.3334C26.0667 10.6667 26.6667 11.2667 26.6667 12.0001V18.6667Z" fill="#384250" />
</svg>
