<svg xmlns="http://www.w3.org/2000/svg" width="20" height="40" viewBox="0 0 20 40">
  <defs>
    <style>
      .cls-1 {
        fill: #fff;
      }

      .cls-1, .cls-2 {
        fill-rule: evenodd;
      }

      .cls-2 {
        fill: #384250;
      }
    </style>
  </defs>
  <path id="active" class="cls-1" d="M10,20A10,10,0,1,1,0,30,10,10,0,0,1,10,20Zm4,11H11v3a0.945,0.945,0,0,1-1,1,0.945,0.945,0,0,1-1-1V31H6a1,1,0,0,1,0-2H9V26a0.945,0.945,0,0,1,1-1,0.945,0.945,0,0,1,1,1v3h3A1,1,0,0,1,14,31Z"/>
  <path id="normal" class="cls-2" d="M10,0A10,10,0,1,1,0,10,10,10,0,0,1,10,0Zm4,11H11v3a0.945,0.945,0,0,1-1,1,0.945,0.945,0,0,1-1-1V11H6a0.945,0.945,0,0,1-1-1A0.945,0.945,0,0,1,6,9H9V6a0.945,0.945,0,0,1,1-1,0.945,0.945,0,0,1,1,1V9h3a0.945,0.945,0,0,1,1,1A0.945,0.945,0,0,1,14,11Z"/>
</svg>
