<svg width="32" height="32" viewBox="0 0 32 32" fill="none" xmlns="http://www.w3.org/2000/svg">
<path d="M21.3333 13.3333H10.6667C9.93333 13.3333 9.33333 13.9333 9.33333 14.6666C9.33333 15.3999 9.93333 15.9999 10.6667 15.9999H21.3333C22.0667 15.9999 22.6667 15.3999 22.6667 14.6666C22.6667 13.9333 22.0667 13.3333 21.3333 13.3333ZM25.3333 3.99992H24V2.66659C24 1.93325 23.4 1.33325 22.6667 1.33325C21.9333 1.33325 21.3333 1.93325 21.3333 2.66659V3.99992H10.6667V2.66659C10.6667 1.93325 10.0667 1.33325 9.33333 1.33325C8.6 1.33325 8 1.93325 8 2.66659V3.99992H6.66667C5.18667 3.99992 4 5.19992 4 6.66658V25.3333C4 26.7999 5.18667 27.9999 6.66667 27.9999H25.3333C26.8 27.9999 28 26.7999 28 25.3333V6.66658C28 5.19992 26.8 3.99992 25.3333 3.99992ZM24 25.3333H8C7.26667 25.3333 6.66667 24.7332 6.66667 23.9999V10.6666H25.3333V23.9999C25.3333 24.7332 24.7333 25.3333 24 25.3333ZM17.3333 18.6666H10.6667C9.93333 18.6666 9.33333 19.2666 9.33333 19.9999C9.33333 20.7333 9.93333 21.3333 10.6667 21.3333H17.3333C18.0667 21.3333 18.6667 20.7333 18.6667 19.9999C18.6667 19.2666 18.0667 18.6666 17.3333 18.6666Z" fill="#384250"/>
</svg>
