<svg width="29" height="28" viewBox="0 0 29 28" fill="none" xmlns="http://www.w3.org/2000/svg">
<path d="M19.205 9.46171C18.75 9.00671 17.9683 8.16671 16.4517 8.16671C16.2067 8.16671 14.795 8.16671 13.4883 8.16671C10.28 8.15504 7.66667 5.54171 7.66667 2.33337H5.33334C5.33334 6.02004 7.795 9.14671 11.1667 10.1617V25.6667H13.5V18.6667H15.8333V25.6667H18.1667V11.725L22.775 16.3334L24.42 14.6884L19.205 9.46171Z" fill="white"/>
<path d="M14.6667 7.00004C15.9553 7.00004 17 5.95537 17 4.66671C17 3.37804 15.9553 2.33337 14.6667 2.33337C13.378 2.33337 12.3333 3.37804 12.3333 4.66671C12.3333 5.95537 13.378 7.00004 14.6667 7.00004Z" fill="white"/>
</svg>
