<svg width="32" height="32" fill="none" viewBox="0 0 32 32" xmlns="http://www.w3.org/2000/svg">
<path d="M9.33335 10.6667C8.60002 10.6667 8.00002 10.0667 8.00002 9.33333C8.00002 8.6 8.60002 8 9.33335 8H20.04C18.4267 5.86667 18.6 3.72 18.8134 2.66667H5.34669C3.88002 2.66667 2.68002 3.85333 2.68002 5.33333L2.66669 26.1067C2.66669 27.2933 4.10669 27.8933 4.94669 27.0533L8.00002 24H26.6667C28.1334 24 29.3334 22.8 29.3334 21.3333V9.29333C28.2134 10.1467 26.84 10.6667 25.3334 10.6667H9.33335ZM17.3334 18.6667H9.33335C8.60002 18.6667 8.00002 18.0667 8.00002 17.3333C8.00002 16.6 8.60002 16 9.33335 16H17.3334C18.0667 16 18.6667 16.6 18.6667 17.3333C18.6667 18.0667 18.0667 18.6667 17.3334 18.6667ZM22.6667 14.6667H9.33335C8.60002 14.6667 8.00002 14.0667 8.00002 13.3333C8.00002 12.6 8.60002 12 9.33335 12H22.6667C23.4 12 24 12.6 24 13.3333C24 14.0667 23.4 14.6667 22.6667 14.6667Z" fill="#384250" />
<path d="M25.3334 8C27.5425 8 29.3334 6.20914 29.3334 4C29.3334 1.79086 27.5425 0 25.3334 0C23.1242 0 21.3334 1.79086 21.3334 4C21.3334 6.20914 23.1242 8 25.3334 8Z" fill="#384250" />
</svg>
