<svg width="161" height="40" viewBox="0 0 161 40" fill="none" xmlns="http://www.w3.org/2000/svg">
<path d="M0 10C0 4.47715 4.47715 0 10 0H30C35.5228 0 40 4.47715 40 10V30C40 35.5228 35.5228 40 30 40H10C4.47715 40 0 35.5228 0 30V10Z" fill="#6938EF"/>
<g clip-path="url(#clip0_23_2676)">
<path d="M21.473 21.4729C22.2866 20.6594 22.2866 19.3406 21.473 18.526C21.0668 18.1198 20.5334 17.9166 20.0001 17.9166C19.4668 17.9166 18.9334 18.1198 18.5272 18.5271C17.7136 19.3406 17.7136 20.6604 18.5272 21.4739C18.9334 21.8802 19.4668 22.0833 20.0001 22.0833C20.5334 22.0833 21.0668 21.8802 21.473 21.4729ZM19.998 27.2937C21.947 27.2937 23.7793 26.5354 25.1563 25.1562C26.5345 23.7781 27.2938 21.9469 27.2938 19.9979C27.2938 18.0489 26.5345 16.2166 25.1563 14.8385C23.3136 12.9948 20.6011 12.2771 18.0803 12.9614C17.248 13.1885 16.7553 14.0479 16.9824 14.8802C17.2074 15.7135 18.0678 16.2073 18.9011 15.9791C20.3438 15.5885 21.8928 15.9979 22.9459 17.0489C23.7334 17.8385 24.1668 18.8854 24.1668 19.9989C24.1668 21.1125 23.7334 22.1594 22.9449 22.9469C21.3688 24.5219 18.6251 24.5219 17.0491 22.9469C15.997 21.8958 15.5866 20.3458 15.9782 18.9021C16.2053 18.0687 15.7126 17.2094 14.8803 16.9833C14.0449 16.7573 13.1876 17.25 12.9616 18.0823C12.2761 20.6052 12.9949 23.3166 14.8386 25.1583C16.2168 26.5354 18.0491 27.2937 19.998 27.2937ZM28.8428 11.1541C25.6834 7.99477 21.0324 6.76144 16.7105 7.93852C15.8772 8.16456 15.3855 9.02394 15.6126 9.85727C15.8397 10.6906 16.6959 11.1833 17.5313 10.9552C20.7782 10.075 24.2636 10.9979 26.6324 13.3646C30.2897 17.0219 30.2897 22.9729 26.6324 26.6312C22.9741 30.2885 17.023 30.2885 13.3647 26.6312C10.9959 24.2635 10.0741 20.776 10.9553 17.5302C11.1824 16.6969 10.6897 15.8375 9.85739 15.6114C9.02093 15.3844 8.16468 15.8781 7.9376 16.7104C6.76156 21.0354 7.99489 25.6844 11.1532 28.8427C13.5918 31.2802 16.7949 32.5 19.998 32.5C23.2011 32.5 26.4043 31.2802 28.8428 28.8427C33.7188 23.9656 33.7188 16.0312 28.8428 11.1541Z" fill="white"/>
</g>
<path d="M154.331 29.277C153.018 29.277 151.885 29.0043 150.93 28.4588C149.982 27.9077 149.251 27.1293 148.74 26.1236C148.229 25.1122 147.973 23.9219 147.973 22.5526C147.973 21.206 148.229 20.0242 148.74 19.0071C149.257 17.9844 149.979 17.1889 150.905 16.6207C151.831 16.0469 152.919 15.7599 154.169 15.7599C154.976 15.7599 155.737 15.8906 156.453 16.152C157.175 16.4077 157.811 16.8054 158.362 17.3452C158.919 17.8849 159.357 18.5724 159.675 19.4077C159.993 20.2372 160.152 21.2259 160.152 22.3736V23.3196H149.422V21.2401H157.195C157.189 20.6492 157.061 20.1236 156.811 19.6634C156.561 19.1974 156.212 18.831 155.763 18.5639C155.32 18.2969 154.803 18.1634 154.212 18.1634C153.581 18.1634 153.027 18.3168 152.55 18.6236C152.072 18.9247 151.7 19.3224 151.433 19.8168C151.172 20.3054 151.038 20.8423 151.033 21.4276V23.2429C151.033 24.0043 151.172 24.6577 151.45 25.2031C151.729 25.7429 152.118 26.1577 152.618 26.4474C153.118 26.7315 153.703 26.8736 154.374 26.8736C154.822 26.8736 155.229 26.8111 155.592 26.6861C155.956 26.5554 156.271 26.3651 156.538 26.1151C156.805 25.8651 157.007 25.5554 157.143 25.1861L160.024 25.5099C159.842 26.2713 159.496 26.9361 158.984 27.5043C158.479 28.0668 157.831 28.5043 157.041 28.8168C156.251 29.1236 155.348 29.277 154.331 29.277Z" fill="#111927"/>
<path d="M146.846 15.9304L142.184 29.0213H138.775L134.113 15.9304H137.403L140.411 25.6549H140.548L143.565 15.9304H146.846Z" fill="#111927"/>
<path d="M128.895 29.0213V15.9304H131.98V29.0213H128.895ZM130.446 14.0725C129.957 14.0725 129.537 13.9105 129.185 13.5867C128.832 13.2571 128.656 12.8622 128.656 12.402C128.656 11.9361 128.832 11.5412 129.185 11.2173C129.537 10.8878 129.957 10.723 130.446 10.723C130.94 10.723 131.361 10.8878 131.707 11.2173C132.06 11.5412 132.236 11.9361 132.236 12.402C132.236 12.8622 132.06 13.2571 131.707 13.5867C131.361 13.9105 130.94 14.0725 130.446 14.0725Z" fill="#111927"/>
<path d="M126.315 15.9304V18.3168H118.789V15.9304H126.315ZM120.647 12.794H123.732V25.0838C123.732 25.4986 123.795 25.8168 123.92 26.0384C124.05 26.2543 124.221 26.402 124.431 26.4815C124.641 26.5611 124.874 26.6009 125.13 26.6009C125.323 26.6009 125.499 26.5867 125.658 26.5582C125.823 26.5298 125.948 26.5043 126.033 26.4815L126.553 28.8935C126.388 28.9503 126.153 29.0128 125.846 29.081C125.545 29.1492 125.175 29.1889 124.738 29.2003C123.965 29.223 123.269 29.1065 122.65 28.8509C122.031 28.5895 121.539 28.1861 121.175 27.6406C120.817 27.0952 120.641 26.4134 120.647 25.5952V12.794Z" fill="#111927"/>
<path d="M108.238 21.3509V29.0213H105.153V15.9304H108.102V18.1548H108.255C108.556 17.4219 109.036 16.8395 109.695 16.4077C110.36 15.9759 111.181 15.7599 112.158 15.7599C113.062 15.7599 113.849 15.9531 114.519 16.3395C115.195 16.7259 115.718 17.2855 116.087 18.0185C116.462 18.7514 116.647 19.6406 116.641 20.6861V29.0213H113.556V21.1634C113.556 20.2884 113.329 19.6037 112.874 19.1094C112.425 18.6151 111.803 18.3679 111.008 18.3679C110.468 18.3679 109.988 18.4872 109.567 18.7259C109.153 18.9588 108.826 19.2969 108.587 19.7401C108.354 20.1832 108.238 20.7202 108.238 21.3509Z" fill="#111927"/>
<path d="M96.7216 29.277C95.4091 29.277 94.2756 29.0043 93.321 28.4588C92.3722 27.9077 91.6421 27.1293 91.1307 26.1236C90.6193 25.1122 90.3636 23.9219 90.3636 22.5526C90.3636 21.206 90.6193 20.0242 91.1307 19.0071C91.6477 17.9844 92.3693 17.1889 93.2955 16.6207C94.2216 16.0469 95.3097 15.7599 96.5597 15.7599C97.3665 15.7599 98.1279 15.8906 98.8438 16.152C99.5654 16.4077 100.202 16.8054 100.753 17.3452C101.31 17.8849 101.747 18.5724 102.065 19.4077C102.384 20.2372 102.543 21.2259 102.543 22.3736V23.3196H91.8125V21.2401H99.5852C99.5796 20.6492 99.4517 20.1236 99.2017 19.6634C98.9517 19.1974 98.6023 18.831 98.1534 18.5639C97.7102 18.2969 97.1932 18.1634 96.6023 18.1634C95.9716 18.1634 95.4176 18.3168 94.9404 18.6236C94.4631 18.9247 94.0909 19.3224 93.8239 19.8168C93.5625 20.3054 93.429 20.8423 93.4233 21.4276V23.2429C93.4233 24.0043 93.5625 24.6577 93.8409 25.2031C94.1193 25.7429 94.5085 26.1577 95.0085 26.4474C95.5085 26.7315 96.0938 26.8736 96.7642 26.8736C97.2131 26.8736 97.6193 26.8111 97.983 26.6861C98.3466 26.5554 98.6619 26.3651 98.929 26.1151C99.196 25.8651 99.3977 25.5554 99.5341 25.1861L102.415 25.5099C102.233 26.2713 101.886 26.9361 101.375 27.5043C100.869 28.0668 100.222 28.5043 99.4318 28.8168C98.6421 29.1236 97.7386 29.277 96.7216 29.277Z" fill="#111927"/>
<path d="M82.7848 29.277C81.478 29.277 80.3558 28.9901 79.4183 28.4162C78.4865 27.8423 77.7678 27.0497 77.2621 26.0384C76.7621 25.0213 76.5121 23.8509 76.5121 22.527C76.5121 21.1974 76.7678 20.0242 77.2791 19.0071C77.7905 17.9844 78.5121 17.1889 79.4439 16.6207C80.3814 16.0469 81.4894 15.7599 82.7678 15.7599C83.8303 15.7599 84.7706 15.956 85.5888 16.348C86.4127 16.7344 87.0689 17.2827 87.5575 17.9929C88.0462 18.6974 88.3246 19.5213 88.3928 20.4645H85.4439C85.3246 19.8338 85.0405 19.3082 84.5916 18.8878C84.1484 18.4617 83.5547 18.2486 82.8104 18.2486C82.1797 18.2486 81.6257 18.419 81.1484 18.7599C80.6712 19.0952 80.299 19.5781 80.032 20.2088C79.7706 20.8395 79.6399 21.5952 79.6399 22.4759C79.6399 23.3679 79.7706 24.1349 80.032 24.777C80.2933 25.4134 80.6598 25.9048 81.1314 26.2514C81.6087 26.5923 82.1683 26.7628 82.8104 26.7628C83.2649 26.7628 83.6712 26.6776 84.0291 26.5071C84.3928 26.331 84.6967 26.0781 84.9411 25.7486C85.1854 25.419 85.353 25.0185 85.4439 24.5469H88.3928C88.3189 25.473 88.0462 26.294 87.5746 27.0099C87.103 27.7202 86.4609 28.277 85.6484 28.6804C84.8359 29.0781 83.8814 29.277 82.7848 29.277Z" fill="#111927"/>
<path d="M65.5348 21.3509V29.0213H62.4496V15.9304H65.3984V18.1548H65.5519C65.853 17.4219 66.3331 16.8395 66.9922 16.4077C67.657 15.9759 68.478 15.7599 69.4553 15.7599C70.3587 15.7599 71.1456 15.9531 71.8161 16.3395C72.4922 16.7259 73.0149 17.2855 73.3842 18.0185C73.7592 18.7514 73.9439 19.6406 73.9382 20.6861V29.0213H70.853V21.1634C70.853 20.2884 70.6257 19.6037 70.1712 19.1094C69.7223 18.6151 69.1002 18.3679 68.3047 18.3679C67.7649 18.3679 67.2848 18.4872 66.8644 18.7259C66.4496 18.9588 66.1229 19.2969 65.8842 19.7401C65.6513 20.1832 65.5348 20.7202 65.5348 21.3509Z" fill="#111927"/>
<path d="M59.1619 11.5668V29.0213H56V11.5668H59.1619Z" fill="#111927"/>
<defs>
<clipPath id="clip0_23_2676">
<rect width="25" height="25" fill="white" transform="translate(7.5 7.5)"/>
</clipPath>
</defs>
</svg>
