<svg width="132" height="44" viewBox="0 0 132 44" fill="none" xmlns="http://www.w3.org/2000/svg">
<path d="M68.136 23.9264C65.784 23.9264 63.867 25.8943 63.867 28.6047C63.867 31.2986 65.784 33.283 68.136 33.283C70.489 33.283 72.406 31.2986 72.406 28.6047C72.405 25.8943 70.488 23.9264 68.136 23.9264ZM68.136 31.4416C66.847 31.4416 65.736 30.2723 65.736 28.6058C65.736 26.9217 66.848 25.77 68.136 25.77C69.425 25.77 70.536 26.9217 70.536 28.6058C70.536 30.2712 69.425 31.4416 68.136 31.4416ZM58.822 23.9264C56.47 23.9264 54.553 25.8943 54.553 28.6047C54.553 31.2986 56.47 33.283 58.822 33.283C61.175 33.283 63.092 31.2986 63.092 28.6047C63.092 25.8943 61.175 23.9264 58.822 23.9264ZM58.822 31.4416C57.533 31.4416 56.422 30.2723 56.422 28.6058C56.422 26.9217 57.534 25.77 58.822 25.77C60.111 25.77 61.222 26.9217 61.222 28.6058C61.223 30.2712 60.111 31.4416 58.822 31.4416ZM47.744 25.363V27.3474H52.062C51.933 28.4639 51.595 29.279 51.079 29.8455C50.451 30.5363 49.468 31.2986 47.744 31.2986C45.086 31.2986 43.008 28.9413 43.008 26.0175C43.008 23.0937 45.086 20.7364 47.744 20.7364C49.178 20.7364 50.225 21.3568 50.998 22.1543L52.271 20.754C51.191 19.6199 49.758 18.752 47.744 18.752C44.103 18.752 41.042 22.0124 41.042 26.0175C41.042 30.0226 44.103 33.283 47.744 33.283C49.709 33.283 51.192 32.5735 52.351 31.2447C53.543 29.9335 53.914 28.0899 53.914 26.6016C53.914 26.1418 53.882 25.7161 53.817 25.3619H47.744V25.363ZM93.052 26.9041C92.698 25.8591 91.618 23.9264 89.411 23.9264C87.22 23.9264 85.399 25.8228 85.399 28.6047C85.399 31.2271 87.204 33.283 89.62 33.283C91.569 33.283 92.697 31.9718 93.165 31.2095L91.715 30.1458C91.232 30.9257 90.571 31.4394 89.62 31.4394C88.67 31.4394 87.993 30.9609 87.558 30.0215L93.245 27.4343L93.052 26.9041ZM87.252 28.4639C87.204 26.6555 88.525 25.7348 89.476 25.7348C90.217 25.7348 90.845 26.1429 91.055 26.727L87.252 28.4639ZM82.629 33.0003H84.497V19.2492H82.629V33.0003ZM79.567 24.9725H79.503C79.084 24.4225 78.278 23.9264 77.264 23.9264C75.137 23.9264 73.188 25.9823 73.188 28.6234C73.188 31.2458 75.137 33.2841 77.264 33.2841C78.279 33.2841 79.084 32.788 79.503 32.2215H79.567V32.8947C79.567 34.6844 78.697 35.6414 77.296 35.6414C76.152 35.6414 75.443 34.7383 75.153 33.976L73.526 34.7207C73.993 35.9604 75.233 37.485 77.296 37.485C79.487 37.485 81.34 36.0671 81.34 32.6109V24.2113H79.568V24.9725H79.567ZM77.425 31.4416C76.136 31.4416 75.057 30.2536 75.057 28.6234C75.057 26.9745 76.136 25.77 77.425 25.77C78.697 25.77 79.696 26.9745 79.696 28.6234C79.696 30.2536 78.697 31.4416 77.425 31.4416ZM101.806 19.2492H97.335V33.0003H99.2V27.7907H101.805C103.873 27.7907 105.907 26.144 105.907 23.5205C105.907 20.897 103.874 19.2492 101.806 19.2492ZM101.854 25.8767H99.2V21.1632H101.854C103.249 21.1632 104.041 22.4337 104.041 23.5205C104.041 24.5853 103.249 25.8767 101.854 25.8767ZM113.386 23.9022C112.035 23.9022 110.636 24.5567 110.057 26.0076L111.713 26.7677C112.067 26.0076 112.727 25.759 113.418 25.759C114.383 25.759 115.364 26.3959 115.38 27.5278V27.6697C115.042 27.4574 114.318 27.1395 113.434 27.1395C111.649 27.1395 109.831 28.2186 109.831 30.2349C109.831 32.0752 111.295 33.2599 112.935 33.2599C114.189 33.2599 114.881 32.6406 115.315 31.9146H115.379V32.9761H117.181V27.7038C117.182 25.264 115.524 23.9022 113.386 23.9022ZM113.16 31.4383C112.55 31.4383 111.697 31.1017 111.697 30.2701C111.697 29.2086 112.759 28.8016 113.676 28.8016C114.495 28.8016 114.882 28.9963 115.38 29.2614C115.235 30.5363 114.238 31.4383 113.16 31.4383ZM123.743 24.2025L121.604 30.1645H121.54L119.32 24.2025H117.31L120.639 32.535L118.741 37.1704H120.687L125.818 24.2025H123.743ZM106.937 33.0003H108.802V19.2492H106.937V33.0003Z" fill="white"/>
<path d="M47.418 11.267C47.418 12.1888 47.17 12.9225 46.673 13.4703C46.109 14.1215 45.3731 14.4471 44.4691 14.4471C43.6031 14.4471 42.8661 14.1171 42.2611 13.4571C41.6551 12.796 41.3521 11.9776 41.3521 11.0008C41.3521 10.0229 41.6551 9.20452 42.2611 8.54452C42.8661 7.88342 43.6031 7.55342 44.4691 7.55342C44.8991 7.55342 45.3101 7.64582 45.7001 7.82952C46.0911 8.01432 46.4041 8.25962 46.6381 8.56652L46.111 9.14732C45.714 8.62482 45.167 8.36412 44.468 8.36412C43.836 8.36412 43.29 8.60832 42.829 9.09672C42.368 9.58512 42.1381 10.2198 42.1381 10.9997C42.1381 11.7796 42.368 12.4143 42.829 12.9027C43.29 13.3911 43.836 13.6353 44.468 13.6353C45.138 13.6353 45.6971 13.39 46.1441 12.8983C46.4341 12.5782 46.602 12.1327 46.647 11.5618H44.468V10.7687H47.375C47.405 10.9414 47.418 11.1075 47.418 11.267Z" fill="white"/>
<path d="M52.0281 8.51048H49.2961V10.6027H51.7601V11.3958H49.2961V13.488H52.0281V14.2998H48.5251V7.69978H52.0281V8.51048Z" fill="white"/>
<path d="M55.279 14.2998H54.508V8.51048H52.832V7.69978H56.955V8.51048H55.279V14.2998Z" fill="white"/>
<path d="M59.938 14.2998V7.69978H60.709V14.2998H59.938Z" fill="white"/>
<path d="M64.1281 14.2998H63.3572V8.51048H61.6812V7.69978H65.8042V8.51048H64.1281V14.2998Z" fill="white"/>
<path d="M73.6089 13.4473C73.0189 14.1139 72.2859 14.4472 71.4089 14.4472C70.5319 14.4472 69.7989 14.1139 69.2099 13.4473C68.6199 12.7807 68.3259 11.9645 68.3259 10.9998C68.3259 10.0351 68.6199 9.21887 69.2099 8.55227C69.7989 7.88567 70.5319 7.55127 71.4089 7.55127C72.2809 7.55127 73.0129 7.88677 73.6049 8.55667C74.1969 9.22657 74.4929 10.0406 74.4929 10.9998C74.4929 11.9645 74.1979 12.7807 73.6089 13.4473ZM69.7789 12.894C70.2229 13.389 70.7659 13.6354 71.4089 13.6354C72.0519 13.6354 72.5959 13.3879 73.0389 12.894C73.4829 12.399 73.7059 11.7676 73.7059 10.9998C73.7059 10.232 73.4829 9.60057 73.0389 9.10557C72.5959 8.61057 72.0519 8.36417 71.4089 8.36417C70.7659 8.36417 70.2229 8.61167 69.7789 9.10557C69.3359 9.60057 69.1129 10.232 69.1129 10.9998C69.1129 11.7676 69.3359 12.399 69.7789 12.894Z" fill="white"/>
<path d="M75.5749 14.2998V7.69978H76.513L79.429 12.8335H79.4619L79.429 11.5619V7.69978H80.1999V14.2998H79.3949L76.344 8.91638H76.3109L76.344 10.188V14.2998H75.5749Z" fill="white"/>
<path fill-rule="evenodd" clip-rule="evenodd" d="M71.4089 7.65166C70.5611 7.65166 69.8552 7.97334 69.2849 8.61887C68.7125 9.26553 68.4259 10.0576 68.4259 11.0002C68.4259 11.9428 68.7125 12.7347 69.2848 13.3814C69.8551 14.0269 70.5611 14.3476 71.4089 14.3476C72.2567 14.3476 72.9626 14.0269 73.534 13.3814C74.1054 12.7347 74.3929 11.9427 74.3929 11.0002C74.3929 10.0634 74.1046 9.27351 73.53 8.62328C72.9564 7.97421 72.2514 7.65166 71.4089 7.65166ZM69.135 8.48638C69.7426 7.79876 70.5027 7.45166 71.4089 7.45166C72.3104 7.45166 73.0695 7.80011 73.6799 8.49084C74.2892 9.1804 74.5929 10.0185 74.5929 11.0002C74.5929 11.987 74.2904 12.8274 73.6839 13.5139C73.0752 14.2015 72.3151 14.5476 71.4089 14.5476C70.5028 14.5476 69.7427 14.2016 69.135 13.5139C68.5274 12.8274 68.2259 11.987 68.2259 11.0002C68.2259 10.0134 68.5274 9.17293 69.135 8.48638ZM44.469 7.65381C43.6321 7.65381 42.9216 7.97128 42.3348 8.61242C41.7474 9.25223 41.452 10.0459 41.452 11.0012C41.452 11.9554 41.7472 12.749 42.3348 13.3899C42.9215 14.03 43.6321 14.3475 44.469 14.3475C45.3457 14.3475 46.0535 14.0333 46.5975 13.4052L46.599 13.4035C47.0754 12.8783 47.318 12.1708 47.318 11.2674C47.318 11.1391 47.3093 11.0063 47.2897 10.8691H44.568V11.4622H46.7552L46.7467 11.5701C46.7006 12.1559 46.5272 12.6248 46.2182 12.9658C45.752 13.4787 45.1659 13.7357 44.468 13.7357C43.8066 13.7357 43.2349 13.4787 42.7563 12.9717C42.2749 12.4618 42.038 11.801 42.038 11.0001C42.038 10.1992 42.2749 9.53845 42.7563 9.02847C43.2349 8.52148 43.8066 8.26451 44.468 8.26451C45.1533 8.26451 45.7053 8.50693 46.1158 8.99366L46.507 8.56257C46.29 8.29984 46.0073 8.08574 45.6573 7.92032C45.2806 7.7429 44.8842 7.65381 44.469 7.65381ZM42.1873 8.47732C42.8106 7.79631 43.574 7.45381 44.469 7.45381C44.9139 7.45381 45.3394 7.5495 45.7427 7.73944C46.1462 7.93019 46.4727 8.18509 46.7176 8.50628L46.768 8.57247L46.1042 9.30403L46.0314 9.20821C45.6547 8.71243 45.1382 8.46451 44.468 8.46451C43.8655 8.46451 43.3452 8.69594 42.9018 9.16575C42.4611 9.63257 42.238 10.2412 42.238 11.0001C42.238 11.759 42.4611 12.3677 42.9018 12.8345C43.3452 13.3043 43.8655 13.5357 44.468 13.5357C45.1102 13.5357 45.6422 13.302 46.0701 12.8314C46.3232 12.552 46.4817 12.1652 46.5372 11.6622H44.368V10.6691H47.4592L47.4736 10.752C47.5046 10.9306 47.518 11.1024 47.518 11.2674C47.518 12.2072 47.2649 12.9667 46.7479 13.5371C46.1639 14.2109 45.3999 14.5475 44.469 14.5475C43.574 14.5475 42.8106 14.205 42.1873 13.5251C41.5629 12.8438 41.252 12.0006 41.252 11.0012C41.252 10.0008 41.5628 9.15751 42.1873 8.47732ZM48.4251 7.60017H52.1281V8.61087H49.3961V10.5031H51.8601V11.4962H49.3961V13.3884H52.1281V14.4002H48.4251V7.60017ZM48.6251 7.80017V14.2002H51.9281V13.5884H49.1961V11.2962H51.6601V10.7031H49.1961V8.41087H51.9281V7.80017H48.6251ZM52.732 7.60017H57.055V8.61087H55.379V14.4002H54.408V8.61087H52.732V7.60017ZM52.932 7.80017V8.41087H54.608V14.2002H55.179V8.41087H56.855V7.80017H52.932ZM59.838 7.60017H60.809V14.4002H59.838V7.60017ZM60.038 7.80017V14.2002H60.609V7.80017H60.038ZM61.5811 7.60017H65.9041V8.61087H64.2281V14.4002H63.2571V8.61087H61.5811V7.60017ZM61.7811 7.80017V8.41087H63.4571V14.2002H64.0281V8.41087H65.7041V7.80017H61.7811ZM75.4749 7.60017H76.5711L79.3532 12.498L79.329 11.5649L79.3289 11.5623V7.60017H80.2999V14.4002H79.3367L76.4197 9.25327L76.444 10.1884L76.4439 14.4002H75.4749V7.60017ZM75.6749 7.80017V14.2002H76.2439V10.1884L76.2083 8.81677H76.4022L79.4532 14.2002H80.0999V7.80017H79.5289V11.5623L79.5646 12.9339H79.3707L76.4547 7.80017H75.6749ZM69.7046 9.03911C70.1668 8.52496 70.7364 8.26456 71.4089 8.26456C72.0812 8.26456 72.652 8.52371 73.1134 9.03919C73.5763 9.55528 73.8059 10.2117 73.8059 11.0002C73.8059 11.7887 73.5763 12.445 73.1134 12.9611C72.6521 13.4754 72.0813 13.7358 71.4089 13.7358C70.7365 13.7358 70.1668 13.4765 69.7045 12.9611C69.2426 12.4451 69.0129 11.7886 69.0129 11.0002C69.0129 10.2117 69.2427 9.55517 69.7046 9.03911ZM69.8534 9.1727C69.4293 9.64663 69.2129 10.2531 69.2129 11.0002C69.2129 11.7472 69.4293 12.3537 69.8534 12.8276M69.8534 9.1727C70.2792 8.69912 70.7955 8.46456 71.4089 8.46456C72.0226 8.46456 72.5398 8.69818 72.9644 9.17265C73.3895 9.64656 73.6059 10.2531 73.6059 11.0002C73.6059 11.7473 73.3896 12.3537 72.9645 12.8276C72.5398 13.3011 72.0225 13.5358 71.4089 13.5358C70.7954 13.5358 70.2791 13.3021 69.8534 12.8276" fill="white"/>
<g filter="url(#filter0_ii_25_2709)">
<path d="M10.436 8.29173C10.145 8.63053 9.97302 9.15633 9.97302 9.83723V34.1648C9.97302 34.8468 10.145 35.3715 10.436 35.7103L10.51 35.7895L22.899 22.1616V22.001V21.8404L10.51 8.21143L10.436 8.29173Z" fill="url(#paint0_linear_25_2709)"/>
<path d="M27.028 26.7057L22.899 22.1616V22.001V21.8404L27.029 17.2974L27.122 17.3557L32.015 20.4137C33.412 21.2871 33.412 22.716 32.015 23.5905L27.122 26.6485L27.028 26.7057Z" fill="url(#paint1_linear_25_2709)"/>
<g filter="url(#filter1_i_25_2709)">
<path d="M27.122 26.6474L22.898 22.001L10.436 35.7103C10.896 36.2471 11.657 36.3131 12.514 35.7785L27.122 26.6474Z" fill="url(#paint2_linear_25_2709)"/>
</g>
<path d="M27.122 17.3547L12.514 8.22466C11.657 7.68896 10.896 7.75606 10.436 8.29286L22.899 22.0022L27.122 17.3547Z" fill="url(#paint3_linear_25_2709)"/>
</g>
<defs>
<filter id="filter0_ii_25_2709" x="9.97302" y="7.85498" width="23.0898" height="28.293" filterUnits="userSpaceOnUse" color-interpolation-filters="sRGB">
<feFlood flood-opacity="0" result="BackgroundImageFix"/>
<feBlend mode="normal" in="SourceGraphic" in2="BackgroundImageFix" result="shape"/>
<feColorMatrix in="SourceAlpha" type="matrix" values="0 0 0 0 0 0 0 0 0 0 0 0 0 0 0 0 0 0 127 0" result="hardAlpha"/>
<feOffset dy="-0.15"/>
<feComposite in2="hardAlpha" operator="arithmetic" k2="-1" k3="1"/>
<feColorMatrix type="matrix" values="0 0 0 0 0 0 0 0 0 0 0 0 0 0 0 0 0 0 0.12 0"/>
<feBlend mode="normal" in2="shape" result="effect1_innerShadow_25_2709"/>
<feColorMatrix in="SourceAlpha" type="matrix" values="0 0 0 0 0 0 0 0 0 0 0 0 0 0 0 0 0 0 127 0" result="hardAlpha"/>
<feOffset dy="0.15"/>
<feComposite in2="hardAlpha" operator="arithmetic" k2="-1" k3="1"/>
<feColorMatrix type="matrix" values="0 0 0 0 1 0 0 0 0 1 0 0 0 0 1 0 0 0 0.25 0"/>
<feBlend mode="normal" in2="effect1_innerShadow_25_2709" result="effect2_innerShadow_25_2709"/>
</filter>
<filter id="filter1_i_25_2709" x="10.436" y="22.001" width="16.686" height="14.147" filterUnits="userSpaceOnUse" color-interpolation-filters="sRGB">
<feFlood flood-opacity="0" result="BackgroundImageFix"/>
<feBlend mode="normal" in="SourceGraphic" in2="BackgroundImageFix" result="shape"/>
<feColorMatrix in="SourceAlpha" type="matrix" values="0 0 0 0 0 0 0 0 0 0 0 0 0 0 0 0 0 0 127 0" result="hardAlpha"/>
<feOffset dy="-0.15"/>
<feComposite in2="hardAlpha" operator="arithmetic" k2="-1" k3="1"/>
<feColorMatrix type="matrix" values="0 0 0 0 0 0 0 0 0 0 0 0 0 0 0 0 0 0 0.08 0"/>
<feBlend mode="normal" in2="shape" result="effect1_innerShadow_25_2709"/>
</filter>
<linearGradient id="paint0_linear_25_2709" x1="21.8008" y1="9.57983" x2="3.42415" y2="26.2859" gradientUnits="userSpaceOnUse">
<stop stop-color="#00A0FF"/>
<stop offset="0.0066" stop-color="#00A1FF"/>
<stop offset="0.2601" stop-color="#00BEFF"/>
<stop offset="0.5122" stop-color="#00D2FF"/>
<stop offset="0.7604" stop-color="#00DFFF"/>
<stop offset="1" stop-color="#00E3FF"/>
</linearGradient>
<linearGradient id="paint1_linear_25_2709" x1="33.8335" y1="22.001" x2="9.63762" y2="22.001" gradientUnits="userSpaceOnUse">
<stop stop-color="#FFE000"/>
<stop offset="0.4087" stop-color="#FFBD00"/>
<stop offset="0.7754" stop-color="#FFA500"/>
<stop offset="1" stop-color="#FF9C00"/>
</linearGradient>
<linearGradient id="paint2_linear_25_2709" x1="24.8281" y1="24.5243" x2="-0.0929349" y2="47.1798" gradientUnits="userSpaceOnUse">
<stop stop-color="#FF3A44"/>
<stop offset="1" stop-color="#C31162"/>
</linearGradient>
<linearGradient id="paint3_linear_25_2709" x1="7.29743" y1="0.194444" x2="18.4254" y2="10.3108" gradientUnits="userSpaceOnUse">
<stop stop-color="#32A071"/>
<stop offset="0.0685" stop-color="#2DA771"/>
<stop offset="0.4762" stop-color="#15CF74"/>
<stop offset="0.8009" stop-color="#06E775"/>
<stop offset="1" stop-color="#00F076"/>
</linearGradient>
</defs>
</svg>
