<svg width="132" height="44" viewBox="0 0 132 44" fill="none" xmlns="http://www.w3.org/2000/svg">
<rect width="132" height="44" fill="white"/>
<path d="M68.136 23.9262C65.784 23.9262 63.867 25.8941 63.867 28.6045C63.867 31.2984 65.784 33.2828 68.136 33.2828C70.489 33.2828 72.406 31.2984 72.406 28.6045C72.405 25.8941 70.488 23.9262 68.136 23.9262ZM68.136 31.4414C66.847 31.4414 65.736 30.2721 65.736 28.6056C65.736 26.9215 66.848 25.7698 68.136 25.7698C69.425 25.7698 70.536 26.9215 70.536 28.6056C70.536 30.271 69.425 31.4414 68.136 31.4414ZM58.822 23.9262C56.47 23.9262 54.553 25.8941 54.553 28.6045C54.553 31.2984 56.47 33.2828 58.822 33.2828C61.175 33.2828 63.092 31.2984 63.092 28.6045C63.092 25.8941 61.175 23.9262 58.822 23.9262ZM58.822 31.4414C57.533 31.4414 56.422 30.2721 56.422 28.6056C56.422 26.9215 57.534 25.7698 58.822 25.7698C60.111 25.7698 61.222 26.9215 61.222 28.6056C61.223 30.271 60.111 31.4414 58.822 31.4414ZM47.744 25.3628V27.3472H52.062C51.933 28.4637 51.595 29.2788 51.079 29.8453C50.451 30.5361 49.468 31.2984 47.744 31.2984C45.086 31.2984 43.008 28.9411 43.008 26.0173C43.008 23.0935 45.086 20.7362 47.744 20.7362C49.178 20.7362 50.225 21.3566 50.998 22.1541L52.271 20.7538C51.191 19.6197 49.758 18.7518 47.744 18.7518C44.103 18.7518 41.042 22.0122 41.042 26.0173C41.042 30.0224 44.103 33.2828 47.744 33.2828C49.709 33.2828 51.192 32.5733 52.351 31.2445C53.543 29.9333 53.914 28.0897 53.914 26.6014C53.914 26.1416 53.882 25.7159 53.817 25.3617H47.744V25.3628ZM93.052 26.9039C92.698 25.8589 91.618 23.9262 89.411 23.9262C87.22 23.9262 85.399 25.8226 85.399 28.6045C85.399 31.2269 87.204 33.2828 89.62 33.2828C91.569 33.2828 92.697 31.9716 93.165 31.2093L91.715 30.1456C91.232 30.9255 90.571 31.4392 89.62 31.4392C88.67 31.4392 87.993 30.9607 87.558 30.0213L93.245 27.4341L93.052 26.9039ZM87.252 28.4637C87.204 26.6553 88.525 25.7346 89.476 25.7346C90.217 25.7346 90.845 26.1427 91.055 26.7268L87.252 28.4637ZM82.629 33.0001H84.497V19.249H82.629V33.0001ZM79.567 24.9723H79.503C79.084 24.4223 78.278 23.9262 77.264 23.9262C75.137 23.9262 73.188 25.9821 73.188 28.6232C73.188 31.2456 75.137 33.2839 77.264 33.2839C78.279 33.2839 79.084 32.7878 79.503 32.2213H79.567V32.8945C79.567 34.6842 78.697 35.6412 77.296 35.6412C76.152 35.6412 75.443 34.7381 75.153 33.9758L73.526 34.7205C73.993 35.9602 75.233 37.4848 77.296 37.4848C79.487 37.4848 81.34 36.0669 81.34 32.6107V24.2111H79.568V24.9723H79.567ZM77.425 31.4414C76.136 31.4414 75.057 30.2534 75.057 28.6232C75.057 26.9743 76.136 25.7698 77.425 25.7698C78.697 25.7698 79.696 26.9743 79.696 28.6232C79.696 30.2534 78.697 31.4414 77.425 31.4414ZM101.806 19.249H97.335V33.0001H99.2V27.7905H101.805C103.873 27.7905 105.907 26.1438 105.907 23.5203C105.907 20.8968 103.874 19.249 101.806 19.249ZM101.854 25.8765H99.2V21.163H101.854C103.249 21.163 104.041 22.4335 104.041 23.5203C104.041 24.5851 103.249 25.8765 101.854 25.8765ZM113.386 23.902C112.035 23.902 110.636 24.5565 110.057 26.0074L111.713 26.7675C112.067 26.0074 112.727 25.7588 113.418 25.7588C114.383 25.7588 115.364 26.3957 115.38 27.5276V27.6695C115.042 27.4572 114.318 27.1393 113.434 27.1393C111.649 27.1393 109.831 28.2184 109.831 30.2347C109.831 32.075 111.295 33.2597 112.935 33.2597C114.189 33.2597 114.881 32.6404 115.315 31.9144H115.379V32.9759H117.181V27.7036C117.182 25.2638 115.524 23.902 113.386 23.902ZM113.16 31.4381C112.55 31.4381 111.697 31.1015 111.697 30.2699C111.697 29.2084 112.759 28.8014 113.676 28.8014C114.495 28.8014 114.882 28.9961 115.38 29.2612C115.235 30.5361 114.238 31.4381 113.16 31.4381ZM123.743 24.2023L121.604 30.1643H121.54L119.32 24.2023H117.31L120.639 32.5348L118.741 37.1702H120.687L125.818 24.2023H123.743ZM106.937 33.0001H108.802V19.249H106.937V33.0001Z" fill="black"/>
<path d="M47.418 11.2673C47.418 12.1891 47.17 12.9228 46.673 13.4706C46.109 14.1218 45.3731 14.4474 44.4691 14.4474C43.6031 14.4474 42.8661 14.1174 42.2611 13.4574C41.6551 12.7963 41.3521 11.9779 41.3521 11.0011C41.3521 10.0232 41.6551 9.20476 42.2611 8.54476C42.8661 7.88366 43.6031 7.55366 44.4691 7.55366C44.8991 7.55366 45.3101 7.64606 45.7001 7.82976C46.0911 8.01456 46.4041 8.25986 46.6381 8.56676L46.111 9.14756C45.714 8.62506 45.167 8.36436 44.468 8.36436C43.836 8.36436 43.29 8.60856 42.829 9.09696C42.368 9.58536 42.1381 10.2201 42.1381 11C42.1381 11.7799 42.368 12.4146 42.829 12.903C43.29 13.3914 43.836 13.6356 44.468 13.6356C45.138 13.6356 45.6971 13.3903 46.1441 12.8986C46.4341 12.5785 46.602 12.133 46.647 11.5621H44.468V10.769H47.375C47.405 10.9417 47.418 11.1078 47.418 11.2673Z" fill="black"/>
<path d="M52.0281 8.51072H49.2961V10.6029H51.7601V11.396H49.2961V13.4882H52.0281V14.3H48.5251V7.70002H52.0281V8.51072Z" fill="black"/>
<path d="M55.279 14.3H54.508V8.51072H52.832V7.70002H56.955V8.51072H55.279V14.3Z" fill="black"/>
<path d="M59.938 14.3V7.70002H60.709V14.3H59.938Z" fill="black"/>
<path d="M64.1281 14.3H63.3572V8.51072H61.6812V7.70002H65.8042V8.51072H64.1281V14.3Z" fill="black"/>
<path d="M73.6089 13.4475C73.0189 14.1141 72.2859 14.4474 71.4089 14.4474C70.5319 14.4474 69.7989 14.1141 69.2099 13.4475C68.6199 12.7809 68.3259 11.9647 68.3259 11C68.3259 10.0353 68.6199 9.21911 69.2099 8.55251C69.7989 7.88591 70.5319 7.55151 71.4089 7.55151C72.2809 7.55151 73.0129 7.88701 73.6049 8.55691C74.1969 9.22681 74.4929 10.0408 74.4929 11C74.4929 11.9647 74.1979 12.7809 73.6089 13.4475ZM69.7789 12.8942C70.2229 13.3892 70.7659 13.6356 71.4089 13.6356C72.0519 13.6356 72.5959 13.3881 73.0389 12.8942C73.4829 12.3992 73.7059 11.7678 73.7059 11C73.7059 10.2322 73.4829 9.60081 73.0389 9.10581C72.5959 8.61081 72.0519 8.36441 71.4089 8.36441C70.7659 8.36441 70.2229 8.61191 69.7789 9.10581C69.3359 9.60081 69.1129 10.2322 69.1129 11C69.1129 11.7678 69.3359 12.3992 69.7789 12.8942Z" fill="black"/>
<path d="M75.5749 14.3V7.70002H76.513L79.429 12.8337H79.4619L79.429 11.5621V7.70002H80.1999V14.3H79.3949L76.344 8.91663H76.3109L76.344 10.1882V14.3H75.5749Z" fill="black"/>
<path fill-rule="evenodd" clip-rule="evenodd" d="M71.4089 7.65148C70.5612 7.65148 69.8553 7.97315 69.2849 8.61869C68.7125 9.26535 68.4259 10.0574 68.4259 11C68.4259 11.9426 68.7125 12.7345 69.2848 13.3812C69.8552 14.0267 70.5611 14.3474 71.4089 14.3474C72.2568 14.3474 72.9627 14.0268 73.534 13.3813C74.1055 12.7345 74.3929 11.9425 74.3929 11C74.3929 10.0633 74.1046 9.27333 73.53 8.6231C72.9564 7.97402 72.2514 7.65148 71.4089 7.65148ZM69.1351 8.4862C69.7427 7.79858 70.5028 7.45148 71.4089 7.45148C72.3105 7.45148 73.0695 7.79993 73.6799 8.49066C74.2893 9.18022 74.5929 10.0183 74.5929 11C74.5929 11.9869 74.2904 12.8272 73.6839 13.5137C73.0753 14.2014 72.3151 14.5474 71.4089 14.5474C70.5028 14.5474 69.7427 14.2014 69.1351 13.5138C68.5274 12.8272 68.2259 11.9868 68.2259 11C68.2259 10.0132 68.5274 9.17274 69.1351 8.4862ZM44.4691 7.65363C43.6321 7.65363 42.9216 7.9711 42.3348 8.61224C41.7474 9.25204 41.4521 10.0457 41.4521 11.001C41.4521 11.9552 41.7473 12.7488 42.3348 13.3898C42.9215 14.0298 43.6321 14.3473 44.4691 14.3473C45.3458 14.3473 46.0536 14.0331 46.5975 13.4051L46.599 13.4033C47.0755 12.8782 47.3181 12.1706 47.3181 11.2672C47.3181 11.1389 47.3094 11.0061 47.2897 10.8689H44.5681V11.462H46.7553L46.7468 11.5699C46.7006 12.1557 46.5272 12.6246 46.2182 12.9657C45.752 13.4785 45.1659 13.7355 44.4681 13.7355C43.8067 13.7355 43.2349 13.4786 42.7564 12.9716C42.275 12.4616 42.0381 11.8009 42.0381 10.9999C42.0381 10.199 42.275 9.53827 42.7564 9.02828C43.2349 8.52129 43.8067 8.26433 44.4681 8.26433C45.1534 8.26433 45.7053 8.50675 46.1158 8.99348L46.507 8.56239C46.29 8.29965 46.0073 8.08556 45.6573 7.92014C45.2806 7.74271 44.8842 7.65363 44.4691 7.65363ZM42.1874 8.47714C42.8106 7.79613 43.5741 7.45363 44.4691 7.45363C44.9139 7.45363 45.3394 7.54932 45.7427 7.73926C46.1463 7.93001 46.4727 8.1849 46.7176 8.50609L46.7681 8.57228L46.1043 9.30385L46.0315 9.20802C45.6548 8.71224 45.1382 8.46433 44.4681 8.46433C43.8655 8.46433 43.3452 8.69576 42.9018 9.16557C42.4612 9.63238 42.2381 10.2411 42.2381 10.9999C42.2381 11.7588 42.4612 12.3675 42.9018 12.8343C43.3452 13.3041 43.8655 13.5355 44.4681 13.5355C45.1102 13.5355 45.6423 13.3019 46.0701 12.8313C46.3232 12.5518 46.4817 12.165 46.5372 11.662H44.3681V10.6689H47.4592L47.4736 10.7518C47.5046 10.9304 47.5181 11.1022 47.5181 11.2672C47.5181 12.207 47.2649 12.9665 46.7479 13.5369C46.1639 14.2107 45.4 14.5473 44.4691 14.5473C43.574 14.5473 42.8106 14.2048 42.1874 13.5249C41.5629 12.8437 41.2521 12.0004 41.2521 11.001C41.2521 10.0006 41.5629 9.15733 42.1874 8.47714ZM48.4252 7.59999H52.1282V8.61069H49.3962V10.5029H51.8602V11.496H49.3962V13.3882H52.1282V14.4H48.4252V7.59999ZM48.6252 7.79999V14.2H51.9282V13.5882H49.1962V11.296H51.6602V10.7029H49.1962V8.41069H51.9282V7.79999H48.6252ZM52.7321 7.59999H57.0551V8.61069H55.3791V14.4H54.4081V8.61069H52.7321V7.59999ZM52.9321 7.79999V8.41069H54.6081V14.2H55.1791V8.41069H56.8551V7.79999H52.9321ZM59.838 7.59999H60.809V14.4H59.838V7.59999ZM60.038 7.79999V14.2H60.609V7.79999H60.038ZM61.5812 7.59999H65.9042V8.61069H64.2282V14.4H63.2572V8.61069H61.5812V7.59999ZM61.7812 7.79999V8.41069H63.4572V14.2H64.0282V8.41069H65.7042V7.79999H61.7812ZM75.475 7.59999H76.5712L79.3532 12.4979L79.329 11.5647L79.329 11.5621V7.59999H80.3V14.4H79.3367L76.4197 9.25309L76.444 10.1882L76.444 14.4H75.475V7.59999ZM75.675 7.79999V14.2H76.244V10.1882L76.2083 8.81659H76.4022L79.4532 14.2H80.1V7.79999H79.529V11.5621L79.5646 12.9337H79.3708L76.4548 7.79999H75.675ZM69.7046 9.03892C70.1668 8.52478 70.7365 8.26438 71.4089 8.26438C72.0812 8.26438 72.652 8.52353 73.1134 9.03901C73.5763 9.5551 73.806 10.2115 73.806 11C73.806 11.7885 73.5763 12.4449 73.1134 12.9609C72.6521 13.4752 72.0814 13.7356 71.4089 13.7356C70.7366 13.7356 70.1668 13.4763 69.7045 12.9609C69.2427 12.4449 69.013 11.7885 69.013 11C69.013 10.2115 69.2427 9.55499 69.7046 9.03892ZM69.8534 9.17251C69.4293 9.64644 69.213 10.2529 69.213 11C69.213 11.747 69.4293 12.3535 69.8534 12.8274M69.8534 9.17251C70.2792 8.69894 70.7955 8.46438 71.4089 8.46438C72.0226 8.46438 72.5398 8.698 72.9644 9.17247C73.3895 9.64637 73.606 10.2529 73.606 11C73.606 11.7471 73.3896 12.3535 72.9645 12.8274C72.5398 13.3009 72.0225 13.5356 71.4089 13.5356C70.7954 13.5356 70.2791 13.302 69.8534 12.8274" fill="black"/>
<g filter="url(#filter0_ii_22_2586)">
<path d="M10.436 8.29185C10.145 8.63065 9.97302 9.15645 9.97302 9.83735V34.1649C9.97302 34.8469 10.145 35.3716 10.436 35.7104L10.51 35.7896L22.899 22.1617V22.0011V21.8405L10.51 8.21155L10.436 8.29185Z" fill="url(#paint0_linear_22_2586)"/>
<path d="M27.028 26.7058L22.899 22.1617V22.0011V21.8405L27.029 17.2975L27.122 17.3558L32.015 20.4138C33.412 21.2872 33.412 22.7161 32.015 23.5906L27.122 26.6486L27.028 26.7058Z" fill="url(#paint1_linear_22_2586)"/>
<g filter="url(#filter1_i_22_2586)">
<path d="M27.122 26.6475L22.898 22.0011L10.436 35.7104C10.896 36.2472 11.657 36.3132 12.514 35.7786L27.122 26.6475Z" fill="url(#paint2_linear_22_2586)"/>
</g>
<path d="M27.122 17.3547L12.514 8.22472C11.657 7.68902 10.896 7.75612 10.436 8.29292L22.899 22.0022L27.122 17.3547Z" fill="url(#paint3_linear_22_2586)"/>
</g>
<defs>
<filter id="filter0_ii_22_2586" x="9.97302" y="7.85504" width="23.0898" height="28.2928" filterUnits="userSpaceOnUse" color-interpolation-filters="sRGB">
<feFlood flood-opacity="0" result="BackgroundImageFix"/>
<feBlend mode="normal" in="SourceGraphic" in2="BackgroundImageFix" result="shape"/>
<feColorMatrix in="SourceAlpha" type="matrix" values="0 0 0 0 0 0 0 0 0 0 0 0 0 0 0 0 0 0 127 0" result="hardAlpha"/>
<feOffset dy="-0.15"/>
<feComposite in2="hardAlpha" operator="arithmetic" k2="-1" k3="1"/>
<feColorMatrix type="matrix" values="0 0 0 0 0 0 0 0 0 0 0 0 0 0 0 0 0 0 0.12 0"/>
<feBlend mode="normal" in2="shape" result="effect1_innerShadow_22_2586"/>
<feColorMatrix in="SourceAlpha" type="matrix" values="0 0 0 0 0 0 0 0 0 0 0 0 0 0 0 0 0 0 127 0" result="hardAlpha"/>
<feOffset dy="0.15"/>
<feComposite in2="hardAlpha" operator="arithmetic" k2="-1" k3="1"/>
<feColorMatrix type="matrix" values="0 0 0 0 1 0 0 0 0 1 0 0 0 0 1 0 0 0 0.25 0"/>
<feBlend mode="normal" in2="effect1_innerShadow_22_2586" result="effect2_innerShadow_22_2586"/>
</filter>
<filter id="filter1_i_22_2586" x="10.436" y="22.0011" width="16.686" height="14.1468" filterUnits="userSpaceOnUse" color-interpolation-filters="sRGB">
<feFlood flood-opacity="0" result="BackgroundImageFix"/>
<feBlend mode="normal" in="SourceGraphic" in2="BackgroundImageFix" result="shape"/>
<feColorMatrix in="SourceAlpha" type="matrix" values="0 0 0 0 0 0 0 0 0 0 0 0 0 0 0 0 0 0 127 0" result="hardAlpha"/>
<feOffset dy="-0.15"/>
<feComposite in2="hardAlpha" operator="arithmetic" k2="-1" k3="1"/>
<feColorMatrix type="matrix" values="0 0 0 0 0 0 0 0 0 0 0 0 0 0 0 0 0 0 0.08 0"/>
<feBlend mode="normal" in2="shape" result="effect1_innerShadow_22_2586"/>
</filter>
<linearGradient id="paint0_linear_22_2586" x1="21.8008" y1="9.57995" x2="3.42415" y2="26.286" gradientUnits="userSpaceOnUse">
<stop stop-color="#00A0FF"/>
<stop offset="0.0066" stop-color="#00A1FF"/>
<stop offset="0.2601" stop-color="#00BEFF"/>
<stop offset="0.5122" stop-color="#00D2FF"/>
<stop offset="0.7604" stop-color="#00DFFF"/>
<stop offset="1" stop-color="#00E3FF"/>
</linearGradient>
<linearGradient id="paint1_linear_22_2586" x1="33.8335" y1="22.0011" x2="9.63765" y2="22.0011" gradientUnits="userSpaceOnUse">
<stop stop-color="#FFE000"/>
<stop offset="0.4087" stop-color="#FFBD00"/>
<stop offset="0.7754" stop-color="#FFA500"/>
<stop offset="1" stop-color="#FF9C00"/>
</linearGradient>
<linearGradient id="paint2_linear_22_2586" x1="24.8281" y1="24.5244" x2="-0.0929349" y2="47.1799" gradientUnits="userSpaceOnUse">
<stop stop-color="#FF3A44"/>
<stop offset="1" stop-color="#C31162"/>
</linearGradient>
<linearGradient id="paint3_linear_22_2586" x1="7.29743" y1="0.194505" x2="18.4254" y2="10.3108" gradientUnits="userSpaceOnUse">
<stop stop-color="#32A071"/>
<stop offset="0.0685" stop-color="#2DA771"/>
<stop offset="0.4762" stop-color="#15CF74"/>
<stop offset="0.8009" stop-color="#06E775"/>
<stop offset="1" stop-color="#00F076"/>
</linearGradient>
</defs>
</svg>
