<svg width="132" height="44" viewBox="0 0 132 44" fill="none" xmlns="http://www.w3.org/2000/svg">
<path d="M89.6785 21.1209V23.641H88.0988V25.2937H89.6785V30.9092C89.6785 32.8267 90.5459 33.5936 92.7282 33.5936C93.1117 33.5936 93.4769 33.548 93.7965 33.4932V31.8588C93.5226 31.8862 93.3491 31.9044 93.0478 31.9044C92.0708 31.9044 91.6416 31.4479 91.6416 30.407V25.2937H93.7965V23.641H91.6416V21.1209H89.6785Z" fill="white"/>
<path d="M99.3557 33.7306C102.259 33.7306 104.04 31.7857 104.04 28.5625C104.04 25.3576 102.25 23.4036 99.3557 23.4036C96.4521 23.4036 94.6625 25.3576 94.6625 28.5625C94.6625 31.7857 96.443 33.7306 99.3557 33.7306ZM99.3557 31.9866C97.6483 31.9866 96.6895 30.7357 96.6895 28.5625C96.6895 26.4077 97.6483 25.1476 99.3557 25.1476C101.054 25.1476 102.022 26.4077 102.022 28.5625C102.022 30.7266 101.054 31.9866 99.3557 31.9866Z" fill="white"/>
<path d="M105.563 33.5389H107.526V27.6677C107.526 26.2707 108.576 25.3302 110.065 25.3302C110.412 25.3302 110.996 25.3941 111.16 25.4489V23.5132C110.95 23.4584 110.576 23.431 110.284 23.431C108.987 23.431 107.882 24.1432 107.599 25.1202H107.453V23.5954H105.563V33.5389Z" fill="white"/>
<path d="M116.035 25.0746C117.487 25.0746 118.436 26.0881 118.482 27.6495H113.46C113.57 26.0972 114.583 25.0746 116.035 25.0746ZM118.473 30.8544C118.108 31.6305 117.295 32.0597 116.108 32.0597C114.537 32.0597 113.524 30.9548 113.46 29.2108V29.1013H120.482V28.4165C120.482 25.2937 118.811 23.4036 116.044 23.4036C113.241 23.4036 111.46 25.4215 111.46 28.5991C111.46 31.7766 113.204 33.7306 116.053 33.7306C118.327 33.7306 119.915 32.6349 120.363 30.8544H118.473Z" fill="white"/>
<path d="M76.8045 29.8669C76.956 32.3086 78.9907 33.8701 82.0191 33.8701C85.2558 33.8701 87.281 32.2329 87.281 29.6208C87.281 27.5672 86.1264 26.4315 83.3251 25.7785L81.8204 25.4094C80.0412 24.993 79.3219 24.4346 79.3219 23.4598C79.3219 22.2295 80.4387 21.4251 82.1138 21.4251C83.7037 21.4251 84.8015 22.2106 85.0002 23.4693H87.0634C86.9403 21.1696 84.9151 19.5513 82.1422 19.5513C79.161 19.5513 77.1736 21.1696 77.1736 23.6018C77.1736 25.6081 78.2998 26.8006 80.7699 27.3779L82.5302 27.8038C84.3378 28.2296 85.1327 28.8543 85.1327 29.8953C85.1327 31.1067 83.8835 31.9868 82.18 31.9868C80.3535 31.9868 79.0853 31.1634 78.9055 29.8669H76.8045Z" fill="white"/>
<path d="M56.4685 23.431C55.1171 23.431 53.9483 24.1067 53.3457 25.2389H53.1996V23.5954H51.3095V36.8442H53.2727V32.0323H53.4279C53.9483 33.0823 55.0714 33.7032 56.4867 33.7032C58.9977 33.7032 60.5956 31.7218 60.5956 28.5625C60.5956 25.4033 58.9977 23.431 56.4685 23.431ZM55.9115 31.941C54.2679 31.941 53.2361 30.6444 53.2361 28.5717C53.2361 26.4898 54.2679 25.1933 55.9206 25.1933C57.5824 25.1933 58.5777 26.4624 58.5777 28.5625C58.5777 30.6718 57.5824 31.941 55.9115 31.941Z" fill="white"/>
<path d="M67.4649 23.431C66.1136 23.431 64.9448 24.1067 64.3422 25.2389H64.1961V23.5954H62.306V36.8442H64.2691V32.0323H64.4244C64.9448 33.0823 66.0679 33.7032 67.4832 33.7032C69.9942 33.7032 71.5921 31.7218 71.5921 28.5625C71.5921 25.4033 69.9942 23.431 67.4649 23.431ZM66.908 31.941C65.2644 31.941 64.2326 30.6444 64.2326 28.5717C64.2326 26.4898 65.2644 25.1933 66.9171 25.1933C68.5789 25.1933 69.5742 26.4624 69.5742 28.5625C69.5742 30.6718 68.5789 31.941 66.908 31.941Z" fill="white"/>
<path d="M47.7873 33.5389H50.0397L45.1091 19.8825H42.8283L37.8976 33.5389H40.0743L41.333 29.9142H46.5381L47.7873 33.5389ZM43.8598 22.362H44.0207L45.9987 28.135H41.8724L43.8598 22.362Z" fill="white"/>
<path d="M39.2162 9.58196V16.1699H41.5948C43.558 16.1699 44.6948 14.96 44.6948 12.8554C44.6948 10.7827 43.5488 9.58196 41.5948 9.58196H39.2162ZM40.2389 10.5133H41.4807C42.8458 10.5133 43.6538 11.3807 43.6538 12.8691C43.6538 14.3802 42.8595 15.2385 41.4807 15.2385H40.2389V10.5133Z" fill="white"/>
<path d="M48.1764 16.2657C49.6282 16.2657 50.5184 15.2933 50.5184 13.6817C50.5184 12.0792 49.6236 11.1022 48.1764 11.1022C46.7246 11.1022 45.8297 12.0792 45.8297 13.6817C45.8297 15.2933 46.72 16.2657 48.1764 16.2657ZM48.1764 15.3937C47.3226 15.3937 46.8433 14.7683 46.8433 13.6817C46.8433 12.6043 47.3226 11.9742 48.1764 11.9742C49.0255 11.9742 49.5095 12.6043 49.5095 13.6817C49.5095 14.7637 49.0255 15.3937 48.1764 15.3937Z" fill="white"/>
<path d="M58.0998 11.1981H57.1182L56.2325 14.992H56.1549L55.1323 11.1981H54.1918L53.1691 14.992H53.0961L52.2058 11.1981H51.2105L52.5802 16.1699H53.5891L54.6118 12.5084H54.6894L55.7166 16.1699H56.7347L58.0998 11.1981Z" fill="white"/>
<path d="M59.2302 16.1699H60.2117V13.2617C60.2117 12.4856 60.6729 12.0016 61.3988 12.0016C62.1247 12.0016 62.4716 12.3988 62.4716 13.1978V16.1699H63.4532V12.9512C63.4532 11.7688 62.8414 11.1022 61.732 11.1022C60.9833 11.1022 60.4902 11.4355 60.2483 11.9879H60.1752V11.1981H59.2302V16.1699Z" fill="white"/>
<path d="M64.9991 16.1699H65.9806V9.25781H64.9991V16.1699Z" fill="white"/>
<path d="M69.6722 16.2657C71.124 16.2657 72.0143 15.2933 72.0143 13.6817C72.0143 12.0792 71.1195 11.1022 69.6722 11.1022C68.2204 11.1022 67.3256 12.0792 67.3256 13.6817C67.3256 15.2933 68.2159 16.2657 69.6722 16.2657ZM69.6722 15.3937C68.8185 15.3937 68.3391 14.7683 68.3391 13.6817C68.3391 12.6043 68.8185 11.9742 69.6722 11.9742C70.5214 11.9742 71.0053 12.6043 71.0053 13.6817C71.0053 14.7637 70.5214 15.3937 69.6722 15.3937Z" fill="white"/>
<path d="M74.9389 15.4257C74.4048 15.4257 74.0167 15.1655 74.0167 14.7181C74.0167 14.2798 74.3271 14.0469 75.012 14.0013L76.2264 13.9237V14.3391C76.2264 14.9555 75.6785 15.4257 74.9389 15.4257ZM74.6878 16.2521C75.3407 16.2521 75.884 15.969 76.1807 15.4714H76.2583V16.1699H77.2034V12.7732C77.2034 11.7231 76.5003 11.1022 75.2539 11.1022C74.1263 11.1022 73.3227 11.6501 73.2223 12.5038H74.1719C74.2815 12.1523 74.6604 11.9514 75.2083 11.9514C75.8794 11.9514 76.2264 12.2482 76.2264 12.7732V13.2023L74.8796 13.28C73.6971 13.353 73.0306 13.8689 73.0306 14.7637C73.0306 15.6722 73.7291 16.2521 74.6878 16.2521Z" fill="white"/>
<path d="M80.5343 16.2521C81.2191 16.2521 81.7989 15.9279 82.0957 15.3846H82.1733V16.1699H83.1138V9.25781H82.1322V11.9879H82.0592C81.7898 11.4401 81.2146 11.1159 80.5343 11.1159C79.2788 11.1159 78.4707 12.1112 78.4707 13.6817C78.4707 15.2568 79.2697 16.2521 80.5343 16.2521ZM80.8128 11.9971C81.6346 11.9971 82.1505 12.6499 82.1505 13.6863C82.1505 14.7272 81.6391 15.3709 80.8128 15.3709C79.9819 15.3709 79.4843 14.7363 79.4843 13.6817C79.4843 12.6362 79.9865 11.9971 80.8128 11.9971Z" fill="white"/>
<path d="M89.4789 16.2657C90.9307 16.2657 91.821 15.2933 91.821 13.6817C91.821 12.0792 90.9261 11.1022 89.4789 11.1022C88.0271 11.1022 87.1323 12.0792 87.1323 13.6817C87.1323 15.2933 88.0225 16.2657 89.4789 16.2657ZM89.4789 15.3937C88.6252 15.3937 88.1458 14.7683 88.1458 13.6817C88.1458 12.6043 88.6252 11.9742 89.4789 11.9742C90.3281 11.9742 90.812 12.6043 90.812 13.6817C90.812 14.7637 90.3281 15.3937 89.4789 15.3937Z" fill="white"/>
<path d="M93.1203 16.1699H94.1019V13.2617C94.1019 12.4856 94.563 12.0016 95.2889 12.0016C96.0148 12.0016 96.3617 12.3988 96.3617 13.1978V16.1699H97.3433V12.9512C97.3433 11.7688 96.7315 11.1022 95.6221 11.1022C94.8734 11.1022 94.3803 11.4355 94.1384 11.9879H94.0653V11.1981H93.1203V16.1699Z" fill="white"/>
<path d="M101.864 9.96089V11.2209H101.074V12.0473H101.864V14.855C101.864 15.8138 102.298 16.1973 103.389 16.1973C103.581 16.1973 103.763 16.1744 103.923 16.147V15.3298C103.786 15.3435 103.699 15.3527 103.549 15.3527C103.06 15.3527 102.846 15.1244 102.846 14.6039V12.0473H103.923V11.2209H102.846V9.96089H101.864Z" fill="white"/>
<path d="M105.241 16.1699H106.222V13.2663C106.222 12.513 106.67 12.0062 107.473 12.0062C108.167 12.0062 108.537 12.408 108.537 13.2023V16.1699H109.518V12.9604C109.518 11.7779 108.866 11.1068 107.806 11.1068C107.058 11.1068 106.533 11.4401 106.291 11.9971H106.213V9.25781H105.241V16.1699Z" fill="white"/>
<path d="M113.059 11.9377C113.785 11.9377 114.26 12.4445 114.283 13.2252H111.772C111.827 12.449 112.333 11.9377 113.059 11.9377ZM114.278 14.8276C114.096 15.2157 113.689 15.4303 113.096 15.4303C112.311 15.4303 111.804 14.8779 111.772 14.0059V13.9511H115.283V13.6087C115.283 12.0473 114.447 11.1022 113.064 11.1022C111.662 11.1022 110.772 12.1112 110.772 13.7C110.772 15.2887 111.644 16.2657 113.068 16.2657C114.205 16.2657 115 15.7179 115.223 14.8276H114.278Z" fill="white"/>
<path d="M27.2459 22.3307C27.2697 20.4816 28.2628 18.7319 29.8381 17.7634C28.8443 16.3441 27.1797 15.4442 25.4479 15.39C23.6007 15.1961 21.8099 16.4953 20.8687 16.4953C19.9092 16.4953 18.4599 15.4092 16.8993 15.4413C14.8651 15.507 12.9688 16.6636 11.9791 18.442C9.8517 22.1252 11.4386 27.5384 13.4764 30.5157C14.496 31.9736 15.6876 33.6021 17.2468 33.5443C18.7726 33.481 19.3424 32.5714 21.1842 32.5714C23.0088 32.5714 23.5434 33.5443 25.1343 33.5076C26.7715 33.481 27.803 32.0432 28.7868 30.5715C29.5194 29.5327 30.0831 28.3846 30.4571 27.1698C28.533 26.356 27.2482 24.4197 27.2459 22.3307Z" fill="white"/>
<path d="M24.2411 13.432C25.1338 12.3603 25.5736 10.9829 25.4671 9.59229C24.1032 9.73553 22.8435 10.3873 21.9387 11.4179C21.054 12.4247 20.5936 13.7779 20.6806 15.1154C22.0449 15.1294 23.3862 14.4953 24.2411 13.432Z" fill="white"/>
</svg>
